HIERARCHY
ROOT Hips
{
 OFFSET 0.000000 0.000000 0.000000
 CHANNELS 6 Xposition Yposition Zposition Yrotation Xrotation Zrotation
 JOINT Chest
 {
  OFFSET 0.000000 9.585900 0.002600
  CHANNELS 3 Yrotation Xrotation Zrotation
  JOINT Chest2
  {
   OFFSET 0.000000 9.601200 -0.005300
   CHANNELS 3 Yrotation Xrotation Zrotation
   JOINT Chest3
   {
    OFFSET 0.000000 9.561800 0.000000
    CHANNELS 3 Yrotation Xrotation Zrotation
    JOINT Chest4
    {
     OFFSET 0.000000 9.552100 0.000000
     CHANNELS 3 Yrotation Xrotation Zrotation
     JOINT Neck
     {
      OFFSET 0.000000 14.453000 0.000000
      CHANNELS 3 Yrotation Xrotation Zrotation
      JOINT Head
      {
       OFFSET 0.000000 8.936500 -0.011300
       CHANNELS 3 Yrotation Xrotation Zrotation
       End Site
       {
        OFFSET 0.000000 17.073600 -0.006000
       }
      }
     }
     JOINT RightCollar
     {
      OFFSET -2.921100 9.558500 0.000000
      CHANNELS 3 Yrotation Xrotation Zrotation
      JOINT RightShoulder
      {
       OFFSET -13.519700 0.000000 0.000000
       CHANNELS 3 Yrotation Xrotation Zrotation
       JOINT RightElbow
       {
        OFFSET 0.000000 -29.696600 0.000000
        CHANNELS 3 Yrotation Xrotation Zrotation
        JOINT RightWrist
        {
         OFFSET 0.000000 -24.004700 0.000000
         CHANNELS 3 Yrotation Xrotation Zrotation
         End Site
         {
          OFFSET 0.000000 -17.728500 0.000000
         }
        }
       }
      }
     }
     JOINT LeftCollar
     {
      OFFSET 2.921100 9.558500 0.000000
      CHANNELS 3 Yrotation Xrotation Zrotation
      JOINT LeftShoulder
      {
       OFFSET 13.519700 0.000000 0.000000
       CHANNELS 3 Yrotation Xrotation Zrotation
       JOINT LeftElbow
       {
        OFFSET 0.000000 -29.696600 0.000000
        CHANNELS 3 Yrotation Xrotation Zrotation
        JOINT LeftWrist
        {
         OFFSET 0.000000 -24.004700 0.000000
         CHANNELS 3 Yrotation Xrotation Zrotation
         End Site
         {
          OFFSET 0.000000 -17.728500 0.000000
         }
        }
       }
      }
     }
    }
   }
  }
 }
 JOINT RightHip
 {
  OFFSET -7.771700 -0.012900 -0.001300
  CHANNELS 3 Yrotation Xrotation Zrotation
  JOINT RightKnee
  {
   OFFSET 0.000000 -40.869800 0.001200
   CHANNELS 3 Yrotation Xrotation Zrotation
   JOINT RightAnkle
   {
    OFFSET 0.000000 -39.717900 0.002100
    CHANNELS 3 Yrotation Xrotation Zrotation
    JOINT RightToe
    {
     OFFSET 0.000000 -4.965400 11.033500
     CHANNELS 3 Yrotation Xrotation Zrotation
     End Site
     {
      OFFSET 0.000000 -1.423100 5.872300
     }
    }
   }
  }
 }
 JOINT LeftHip
 {
  OFFSET 7.771700 -0.012900 -0.001300
  CHANNELS 3 Yrotation Xrotation Zrotation
  JOINT LeftKnee
  {
   OFFSET 0.000000 -40.869800 0.001200
   CHANNELS 3 Yrotation Xrotation Zrotation
   JOINT LeftAnkle
   {
    OFFSET 0.000000 -39.717900 0.002100
    CHANNELS 3 Yrotation Xrotation Zrotation
    JOINT LeftToe
    {
     OFFSET 0.000000 -4.965400 11.033500
     CHANNELS 3 Yrotation Xrotation Zrotation
     End Site
     {
      OFFSET 0.000000 -1.423100 5.872300
     }
    }
   }
  }
 }
}
MOTION
Frames: 13
Frame Time: 0.008333
0.000000 85.388000 0.000000 0.000000 -5.767877 0.000000 0.000000 11.653817 0.000000 0.000000 -5.885947 0.000000 0.000000 -0.000000 0.000000 0.000000 -0.000000 0.000000 0.000000 12.528835 0.000000 0.000000 0.711642 0.000000 0.000000 -0.000000 0.000000 0.000000 0.000000 -90.000000 0.000000 -2.309062 0.000000 0.000000 2.309062 0.000000 0.000000 -0.000000 0.000000 0.000000 -0.000000 90.000000 0.000000 -2.309062 0.000000 0.000000 2.309062 0.000000 0.000000 8.520406 0.000000 0.000000 1.905762 0.000000 -0.000000 -4.658285 0.000000 0.000000 -0.000000 0.000000 0.000000 8.520406 0.000000 0.000000 1.905762 0.000000 -0.000000 -4.658285 0.000000 0.000000 -0.000000 0.000000
-233.948525 57.684495 22.542418 173.722337 -49.512984 -3.222562 4.445146 22.451278 3.500846 2.311879 12.878395 1.745479 2.972228 16.057440 2.272258 2.312103 12.855821 1.739178 0.985097 21.171607 4.710782 0.456198 3.660715 8.297829 -0.418989 10.239353 0.818844 -22.784752 -16.788545 -0.568174 -91.396156 -38.518070 142.401245 -0.137098 -21.182994 -27.350679 -8.320707 6.922592 0.869926 19.773839 -11.555871 1.775787 97.127281 -47.903960 -134.006089 5.448860 -22.009892 24.128516 7.255108 -22.295511 0.087877 -42.728700 71.749134 -46.374581 4.160404 -12.952064 13.321332 -0.019941 -0.012640 0.005294 -10.548280 -19.766031 9.409096 57.228320 81.423958 59.257732 0.625559 -18.231794 -23.334506 0.004572 -0.002312 0.002728
-233.951163 57.682828 22.545040 173.713003 -49.465346 -3.212737 4.444804 22.427606 3.498329 2.311875 12.887730 1.749288 2.972508 16.064743 2.278696 2.310702 12.854252 1.740041 0.978801 21.151936 4.705339 0.452464 3.608071 8.291516 -0.437954 10.279189 0.798761 -22.872708 -16.745198 -0.555584 -91.541755 -38.551143 142.557619 -0.131857 -21.191270 -27.218384 -8.273633 6.972617 0.896584 19.873889 -11.557434 1.709952 96.960216 -47.790308 -133.982353 5.604333 -22.063468 24.157971 7.275704 -22.346466 0.077456 -42.744982 71.747994 -46.382523 4.156935 -12.947501 13.322634 -0.019965 -0.012805 0.004415 -10.551926 -19.813201 9.415313 57.188601 81.422413 59.215503 0.624511 -18.227268 -23.335802 0.000365 -0.001441 0.004096
-233.954796 57.682039 22.546611 173.706649 -49.419657 -3.200595 4.442846 22.426193 3.497850 2.310640 12.854934 1.739694 2.977899 16.086320 2.297294 2.309552 12.850992 1.741958 0.985050 21.125048 4.703997 0.447904 3.493253 8.250679 -0.463736 10.326159 0.778190 -22.958219 -16.705078 -0.541504 -91.761738 -38.606392 142.745640 -0.104797 -21.193516 -27.082848 -8.231552 7.026627 0.918765 19.963834 -11.557014 1.650911 96.928466 -47.730721 -134.017646 5.734454 -22.103281 24.173382 7.296880 -22.395639 0.060220 -42.771844 71.748648 -46.400785 4.155244 -12.945364 13.325526 -0.012354 -0.013561 0.003811 -10.567334 -19.855176 9.415323 57.186024 81.420759 59.200622 0.614851 -18.234303 -23.335259 0.010752 0.000734 0.004987
-233.959037 57.681416 22.547683 173.704026 -49.371096 -3.188821 4.439872 22.420772 3.499686 2.309626 12.851169 1.741975 2.979979 16.076277 2.301311 2.304112 12.840954 1.737516 0.990846 21.095377 4.694551 0.447324 3.425907 8.222918 -0.490589 10.386226 0.763837 -23.047755 -16.673637 -0.521005 -92.040204 -38.682215 142.956716 -0.065760 -21.195066 -26.947653 -8.194262 7.085386 0.937088 20.054898 -11.551766 1.603645 97.004850 -47.710134 -134.109536 5.831854 -22.134063 24.179334 7.305934 -22.443853 0.040781 -42.779795 71.751151 -46.409778 4.154867 -12.947023 13.330020 -0.015610 -0.013463 0.001451 -10.595489 -19.900695 9.412953 57.194054 81.419502 59.187155 0.628189 -18.233843 -23.338031 0.007927 0.002993 0.004067
-233.962809 57.681880 22.547397 173.702470 -49.328887 -3.180522 4.439502 22.413833 3.507550 2.315010 12.881277 1.764627 2.967671 16.033792 2.277429 2.294466 12.825918 1.725623 0.997639 21.082402 4.692711 0.463542 3.338918 8.189829 -0.509065 10.457050 0.761845 -23.142309 -16.647873 -0.492559 -92.377359 -38.779726 143.190424 -0.015266 -21.194358 -26.814877 -8.176101 7.116497 0.946425 20.170620 -11.513197 1.588326 97.163946 -47.714360 -134.254294 5.891409 -22.157207 24.179189 7.311522 -22.484969 0.026327 -42.783526 71.752890 -46.413984 4.152830 -12.947545 13.332358 -0.011832 -0.014301 0.000251 -10.605984 -19.942592 9.411965 57.192221 81.426823 59.180275 0.639216 -18.236020 -23.340955 0.005165 0.002375 0.004467
-233.966464 57.679353 22.549207 173.685098 -49.261652 -3.162353 4.443924 22.382582 3.512055 2.321415 12.885958 1.766652 2.958432 16.001649 2.264384 2.311728 12.844144 1.748311 0.981703 21.048650 4.671049 0.486466 3.235007 8.147698 -0.545439 10.499828 0.743627 -23.239632 -16.621825 -0.462622 -92.777727 -38.896803 143.448488 0.044652 -21.192047 -26.685179 -8.179250 7.122475 0.937765 20.298416 -11.475977 1.579898 97.381467 -47.730227 -134.438064 5.913124 -22.175648 24.165599 7.325239 -22.552060 0.011002 -42.783341 71.753784 -46.414233 4.150104 -12.949359 13.334066 -0.009160 -0.011405 -0.001143 -10.616377 -20.008567 9.416762 57.184017 81.435840 59.161594 0.653453 -18.240412 -23.341157 0.008173 0.003483 0.003274
-233.969231 57.679993 22.547772 173.681042 -49.217677 -3.156857 4.447867 22.379543 3.519648 2.328392 12.892059 1.770549 2.958125 15.994571 2.271981 2.343377 12.894929 1.777426 0.950435 20.944386 4.630472 0.500309 3.115860 8.101096 -0.607276 10.469685 0.713486 -23.335525 -16.595501 -0.435910 -93.233332 -39.029543 143.725512 0.109485 -21.194369 -26.560112 -8.175476 7.137386 0.947943 20.420139 -11.504430 1.530372 97.637335 -47.748798 -134.652787 5.904049 -22.192851 24.135579 7.330609 -22.595338 -0.003583 -42.790779 71.756403 -46.418705 4.157662 -12.951983 13.335638 -0.015173 -0.011996 -0.004504 -10.630768 -20.049099 9.422355 57.181523 81.437795 59.149805 0.659458 -18.240412 -23.342939 0.009834 0.002173 0.003248
-233.971716 57.679363 22.546841 173.676107 -49.162197 -3.151738 4.461855 22.394776 3.534927 2.326168 12.859299 1.763755 2.994494 16.061439 2.306518 2.306406 12.816615 1.751599 0.969248 20.902337 4.621455 0.515955 2.978719 8.051401 -0.627696 10.497993 0.719440 -23.425157 -16.569021 -0.411440 -93.728991 -39.169160 144.014870 0.175957 -21.204167 -26.444121 -8.158501 7.175816 0.966935 20.572198 -11.493527 1.514535 97.931711 -47.771715 -134.903124 5.875979 -22.207545 24.092369 7.336401 -22.652635 -0.013283 -42.806051 71.757944 -46.432412 4.158550 -12.952811 13.336110 -0.007992 -0.012113 -0.003886 -10.636736 -20.102742 9.426961 57.192379 81.434522 59.159805 0.664631 -18.241179 -23.346146 0.008744 0.003244 0.004046
-233.973612 57.680132 22.544114 173.671168 -49.115853 -3.147867 4.478752 22.412212 3.549243 2.329259 12.851667 1.766158 3.002379 16.067493 2.312860 2.321445 12.836108 1.761391 0.963521 20.804670 4.592838 0.535097 2.823654 8.003438 -0.672074 10.466716 0.718244 -23.488881 -16.561678 -0.393337 -94.248439 -39.305807 144.284697 0.241246 -21.219422 -26.338731 -8.177256 7.142081 0.979163 20.727300 -11.466043 1.508154 98.285463 -47.810934 -135.190330 5.837249 -22.216161 24.036197 7.340368 -22.702322 -0.020198 -42.837225 71.756944 -46.461148 4.160059 -12.950650 13.341249 -0.000980 -0.013316 -0.004973 -10.636407 -20.147335 9.433819 57.207961 81.431600 59.177490 0.661446 -18.242791 -23.345099 0.009133 0.001967 0.003174
-233.975165 57.682613 22.539241 173.666683 -49.080839 -3.144094 4.494065 22.443666 3.564143 2.336733 12.859121 1.771412 3.004265 16.061213 2.313694 2.336737 12.859142 1.771508 1.011935 20.683044 4.553289 0.515736 2.666204 7.978700 -0.711241 10.424074 0.717838 -23.510810 -16.593272 -0.385365 -94.768720 -39.437922 144.501744 0.303420 -21.241521 -26.242501 -8.193213 7.099052 0.995095 20.859146 -11.435686 1.494649 98.713357 -47.875222 -135.507534 5.788270 -22.214728 23.967361 7.343004 -22.738871 -0.030019 -42.873392 71.757592 -46.491641 4.173401 -12.950455 13.345865 0.000286 -0.019754 -0.012555 -10.633229 -20.180360 9.437268 57.221647 81.430896 59.195440 0.656541 -18.240667 -23.343819 0.010446 -0.004306 0.002972
-233.976786 57.683801 22.534767 173.658709 -49.033305 -3.137120 4.504007 22.453167 3.570957 2.342530 12.864553 1.774572 3.011690 16.067972 2.317858 2.329219 12.827809 1.765394 1.042426 20.627797 4.534245 0.547602 2.493243 7.927863 -0.724873 10.430781 0.726154 -23.571914 -16.560032 -0.369041 -95.277796 -39.548768 144.792826 0.359227 -21.271059 -26.153131 -8.183253 7.109294 1.017548 20.909532 -11.439095 1.466875 99.220993 -47.988715 -135.799781 5.729508 -22.208995 23.890437 7.347934 -22.782276 -0.040418 -42.870559 71.758566 -46.486941 4.171864 -12.953220 13.345613 -0.001094 -0.019490 -0.012065 -10.620960 -20.227754 9.440890 57.220535 81.431832 59.202785 0.659722 -18.233730 -23.339858 0.005194 -0.011924 0.001000
-233.978350 57.683425 22.530954 173.647972 -48.971085 -3.128977 4.510014 22.420343 3.571373 2.351953 12.898480 1.782466 3.007788 16.039228 2.312719 2.351518 12.883293 1.780175 1.030138 20.528092 4.510269 0.607990 2.315384 7.861714 -0.757335 10.379868 0.723524 -23.609125 -16.523700 -0.356185 -95.767240 -39.647351 145.069069 0.405237 -21.309456 -26.068823 -8.184464 7.065540 1.042387 21.005296 -11.399413 1.455595 99.753045 -48.078597 -136.175558 5.668438 -22.204116 23.816408 7.356373 -22.842349 -0.049775 -42.874827 71.759923 -46.490272 4.170314 -12.956986 13.344703 -0.003159 -0.017575 -0.008027 -10.595306 -20.289828 9.444792 57.219533 81.437763 59.221263 0.662102 -18.242372 -23.334699 0.009534 -0.010784 0.000744
